<svg xmlns="http://www.w3.org/2000/svg" width="79.613" height="80.093" viewBox="0 0 79.613 80.093"><g transform="translate(6191.057 2613.923)"><ellipse cx="39.806" cy="40.046" fill="#fff" rx="39.806" ry="40.046" transform="translate(-6191.057 -2613.923)"/><path fill="#fff" d="M-6151.251-2610.923a36.56 36.56 0 0 0-26.02 10.844 37.17 37.17 0 0 0 0 52.4 36.829 36.829 0 0 0 62.826-26.2 37.06 37.06 0 0 0-22.486-34.136 36.4 36.4 0 0 0-14.32-2.908m0-3a40.047 40.047 0 1 1-39.806 40.046 39.927 39.927 0 0 1 39.806-40.046"/><g transform="translate(-6171.133 -2593.384)"><path fill="#c2c2c2" d="M.378 5.664v34.745a.755.755 0 0 0 .755.755h37.01a.755.755 0 0 0 .755-.755V5.664a.755.755 0 0 0-.755-.755H1.133a.755.755 0 0 0-.755.755"/><path fill="#212a41" d="M38.143 41.542H1.133A1.133 1.133 0 0 1 0 40.409V5.665a1.133 1.133 0 0 1 1.133-1.133h37.01a1.133 1.133 0 0 1 1.133 1.133v34.744a1.133 1.133 0 0 1-1.133 1.133M1.133 5.287a.38.38 0 0 0-.378.378v34.744a.38.38 0 0 0 .378.378h37.01a.38.38 0 0 0 .378-.378V5.665a.38.38 0 0 0-.378-.378Z"/><path fill="#e0e0e0" d="M2.644 12.462h38.52v27.946a.755.755 0 0 1-.755.755H3.399a.755.755 0 0 1-.755-.755Z"/><path fill="#212a41" d="M40.409 41.542H3.399a1.133 1.133 0 0 1-1.133-1.133V12.463a.38.38 0 0 1 .378-.378h38.522a.38.38 0 0 1 .378.378v27.946a1.133 1.133 0 0 1-1.135 1.133M3.021 12.84v27.569a.38.38 0 0 0 .378.378h37.01a.38.38 0 0 0 .378-.378V12.84Z"/><path fill="#fefefe" d="M4.155 39.275a.38.38 0 0 1-.378-.38V13.973a.378.378 0 0 1 .755 0v24.922a.38.38 0 0 1-.377.38"/><path fill="#c2c2c2" d="M39.654 39.275a.38.38 0 0 1-.378-.38V13.973a.378.378 0 1 1 .755 0v24.922a.38.38 0 0 1-.377.38"/><path fill="#b51040" d="M38.898 12.462H.378v-6.8a.755.755 0 0 1 .755-.753h37.01a.755.755 0 0 1 .755.755Z"/><path fill="#212a41" d="M38.9 12.84H.378A.38.38 0 0 1 0 12.462v-6.8a1.133 1.133 0 0 1 1.133-1.13h37.01a1.133 1.133 0 0 1 1.133 1.133v6.8a.38.38 0 0 1-.376.375M.755 12.085H38.52v-6.42a.38.38 0 0 0-.378-.378H1.133a.38.38 0 0 0-.378.378Z"/><path fill="#d32e5e" d="M41.164 12.462H2.644v-6.8a.755.755 0 0 1 .755-.753h37.01a.755.755 0 0 1 .755.755Z"/><path fill="#212a41" d="M41.166 12.84H2.644a.38.38 0 0 1-.378-.378v-6.8a1.133 1.133 0 0 1 1.133-1.13h37.01a1.133 1.133 0 0 1 1.133 1.133v6.8a.38.38 0 0 1-.376.375m-38.145-.755h37.765v-6.42a.38.38 0 0 0-.378-.378H3.399a.38.38 0 0 0-.378.378Z"/><path fill="#b51040" d="M39.654 11.329a.38.38 0 0 1-.378-.378V6.42a.378.378 0 1 1 .755 0v4.532a.38.38 0 0 1-.377.377"/><path fill="#f14c7c" d="M4.155 11.329a.38.38 0 0 1-.378-.378V6.42a.378.378 0 0 1 .755 0v4.532a.38.38 0 0 1-.377.377"/><rect width="2.266" height="9.064" fill="#e0e0e0" rx="1" transform="translate(9.441 .378)"/><path fill="#212a41" d="M10.952 9.819h-.755a1.133 1.133 0 0 1-1.133-1.133V1.133A1.133 1.133 0 0 1 10.197 0h.755a1.133 1.133 0 0 1 1.133 1.133v7.553a1.133 1.133 0 0 1-1.133 1.133M10.197.755a.38.38 0 0 0-.378.378v7.553a.38.38 0 0 0 .378.378h.755a.38.38 0 0 0 .378-.378V1.133a.38.38 0 0 0-.378-.378Z"/><rect width="2.266" height="9.064" fill="#e0e0e0" rx="1" transform="translate(20.771 .378)"/><path fill="#212a41" d="M22.281 9.819h-.755a1.133 1.133 0 0 1-1.133-1.133V1.133A1.133 1.133 0 0 1 21.526 0h.755a1.133 1.133 0 0 1 1.133 1.133v7.553a1.133 1.133 0 0 1-1.133 1.133M21.526.755a.38.38 0 0 0-.378.378v7.553a.38.38 0 0 0 .378.378h.755a.38.38 0 0 0 .378-.378V1.133a.38.38 0 0 0-.378-.378Z"/><rect width="2.266" height="9.064" fill="#e0e0e0" rx="1" transform="translate(32.1 .378)"/><path fill="#212a41" d="M33.611 9.819h-.755a1.133 1.133 0 0 1-1.133-1.133V1.133A1.133 1.133 0 0 1 32.856 0h.755a1.133 1.133 0 0 1 1.133 1.133v7.553a1.133 1.133 0 0 1-1.133 1.133M32.856.755a.38.38 0 0 0-.378.378v7.553a.38.38 0 0 0 .378.378h.755a.38.38 0 0 0 .378-.378V1.133a.38.38 0 0 0-.378-.378Z"/><circle cx="2.266" cy="2.266" r="2.266" fill="#f9ac2f" transform="translate(8.686 16.239)"/><path fill="#212a41" d="M10.952 21.148a2.644 2.644 0 1 1 2.644-2.644 2.644 2.644 0 0 1-2.644 2.644m0-4.532a1.888 1.888 0 1 0 1.888 1.888 1.89 1.89 0 0 0-1.888-1.888"/><circle cx="2.266" cy="2.266" r="2.266" fill="#f9ac2f" transform="translate(8.686 24.547)"/><path fill="#212a41" d="M10.952 29.457a2.644 2.644 0 1 1 2.644-2.644 2.644 2.644 0 0 1-2.644 2.644m0-4.532a1.888 1.888 0 1 0 1.888 1.888 1.89 1.89 0 0 0-1.888-1.888"/><circle cx="2.266" cy="2.266" r="2.266" fill="#f9ac2f" transform="translate(8.686 32.856)"/><g fill="#212a41" transform="translate(8.308 15.861)"><path d="M2.644 21.904a2.644 2.644 0 1 1 2.644-2.644 2.644 2.644 0 0 1-2.644 2.644m0-4.532a1.888 1.888 0 1 0 1.888 1.888 1.89 1.89 0 0 0-1.888-1.888M28.324 1.51H8.686a.378.378 0 0 1 0-.755h19.638a.378.378 0 1 1 0 .755M20.77 4.532H8.686a.378.378 0 1 1 0-.755H20.77a.378.378 0 1 1 0 .755m0 8.308H8.686a.378.378 0 1 1 0-.755H20.77a.378.378 0 1 1 0 .755m7.554-3.021H8.686a.378.378 0 0 1 0-.755h19.638a.378.378 0 1 1 0 .755m0 8.308H8.686a.378.378 0 0 1 0-.755h19.638a.378.378 0 1 1 0 .755m-7.554 3.021H8.686a.378.378 0 1 1 0-.755H20.77a.378.378 0 1 1 0 .755M2.644 3.021a.4.4 0 0 1-.144-.029.38.38 0 0 1-.233-.349V.378a.378.378 0 1 1 .755 0v1.354l.866-.866a.378.378 0 1 1 .535.535L2.912 2.912a.38.38 0 0 1-.268.109m2.266 8.308H2.644a.38.38 0 0 1-.378-.378V8.686a.378.378 0 1 1 .755 0v1.888h1.888a.378.378 0 1 1 0 .755Z"/><path d="M4.154 21.149a.38.38 0 0 1-.267-.11l-1.511-1.511a.38.38 0 0 1-.11-.267v-2.266a.378.378 0 1 1 .755 0v2.11l1.4 1.4a.378.378 0 0 1-.267.645Z"/></g></g></g></svg>