<svg xmlns="http://www.w3.org/2000/svg" width="70.25" height="70.25" viewBox="0 0 70.25 70.25"><path fill="#eec85a" fill-rule="evenodd" d="M52.329 8.168a16 16 0 0 1 2.144.888l5.061-3.715a.96.96 0 0 1 1.252.095l4.6 4.582a.96.96 0 0 1 .1 1.255l-3.719 5.066a16 16 0 0 1 .892 2.149l6.2.95a.96.96 0 0 1 .817.952l.013 6.492a.96.96 0 0 1-.819.956l-6.2.952a16.5 16.5 0 0 1-.909 2.18l3.724 5.034a.96.96 0 0 1-.095 1.258L60.8 41.84a.96.96 0 0 1-1.255.092l-5.021-3.712a16 16 0 0 1-2.214.918l-.925 6.187a.96.96 0 0 1-.956.821l-6.495-.013a.96.96 0 0 1-.953-.823l-.925-6.177a16 16 0 0 1-2.217-.919l-5.02 3.719a.96.96 0 0 1-1.255-.092l-4.595-4.578a.96.96 0 0 1-.095-1.258l3.724-5.034a16 16 0 0 1-.914-2.209l-6.179-.925a.96.96 0 0 1-.823-.953l-.011-6.485a.96.96 0 0 1 .821-.956l6.2-.928a16 16 0 0 1 .9-2.174l-3.719-5.065a.96.96 0 0 1 .1-1.255l4.6-4.582a.96.96 0 0 1 1.252-.095l5.061 3.715a16 16 0 0 1 2.144-.888l.953-6.216a.96.96 0 0 1 .957-.819l6.492.013a.96.96 0 0 1 .952.817Z"/><circle cx="11.629" cy="11.629" r="11.629" fill="#f8f7f8" transform="rotate(-67.486 38.403 -8.983)"/><path fill="#ffecc6" fill-rule="evenodd" d="M39.841 57.111a4.037 4.037 0 0 0 .038-7.019l-12.251-7.073c-3.052-1.762-3.47-5.871-16.452-1.047v19.01c7.443-2.235 18.425 9.761 24.09 7.947l31.115-8.336a4.46 4.46 0 0 0 3.144-5.446 4.55 4.55 0 0 0-5.446-3.144Z"/><rect width="9.477" height="26.126" fill="#737373" rx="4.738" transform="translate(1.7 38.333)"/><path fill="#242222" fill-rule="evenodd" d="M40.912 23.641a1.133 1.133 0 0 1 1.133-1.133h3.432v-3.433a1.133 1.133 0 1 1 2.266 0v3.433h3.433a1.133 1.133 0 1 1 0 2.266h-3.433v3.432a1.133 1.133 0 1 1-2.266 0v-3.433h-3.432a1.133 1.133 0 0 1-1.133-1.133Zm5.7-10.5a10.5 10.5 0 1 0 10.5 10.5A10.5 10.5 0 0 0 46.61 13.143Zm0 23.26A12.764 12.764 0 1 0 33.85 23.642 12.764 12.764 0 0 0 46.61 36.4ZM31.981 19.532l-6.743 1 .011 6.2 6.726 1.008.218.661a15 15 0 0 0 .85 2.057l.313.622-4.056 5.478 4.391 4.372 5.466-4.042.623.316a15 15 0 0 0 2.061.85l.664.217 1.006 6.72 6.2.013 1.007-6.733.661-.218a15 15 0 0 0 2.059-.85l.623-.316 5.466 4.045 4.391-4.375-4.052-5.476.313-.622a15 15 0 0 0 .841-2.03l.22-.657 6.745-1.033-.01-6.2-6.742-1.039-.218-.656a15 15 0 0 0-.833-1.994l-.31-.62 4.044-5.507-4.391-4.379-5.507 4.034-.623-.31a15 15 0 0 0-1.983-.827l-.657-.22-1.042-6.746-6.2-.013-1.037 6.759-.657.22a15 15 0 0 0-2 .827l-.619.31-5.5-4.041-4.391 4.383 4.044 5.507-.314.627a15 15 0 0 0-.838 2.024l-.22.661Zm-7.211 9.423 5.505.826q.2.54.44 1.064L27.4 35.329a2.09 2.09 0 0 0 .205 2.736l4.595 4.578a2.086 2.086 0 0 0 2.728.2l4.472-3.308q.528.238 1.072.446l.824 5.5a2.09 2.09 0 0 0 2.071 1.787l6.487.011a2.08 2.08 0 0 0 2.074-1.787l.826-5.515q.54-.203 1.068-.442l4.473 3.307a2.08 2.08 0 0 0 2.726-.2l4.595-4.578a2.09 2.09 0 0 0 .207-2.736L62.5 30.845c.154-.341.3-.688.425-1.037l5.534-.85a2.09 2.09 0 0 0 1.79-2.078l-.011-6.485a2.09 2.09 0 0 0-1.78-2.071l-5.524-.85q-.194-.513-.425-1.007l3.318-4.521a2.085 2.085 0 0 0-.211-2.728l-4.6-4.585a2.08 2.08 0 0 0-2.722-.2L53.78 7.746q-.5-.221-1-.416l-.85-5.535a2.09 2.09 0 0 0-2.069-1.78L43.369 0A2.086 2.086 0 0 0 41.3 1.782l-.85 5.545q-.508.191-1 .416l-4.518-3.316a2.086 2.086 0 0 0-2.721.207l-4.6 4.58a2.09 2.09 0 0 0-.211 2.729l3.318 4.521c-.153.337-.3.683-.425 1.03l-5.524.827a2.08 2.08 0 0 0-1.792 2.074l.011 6.487a2.08 2.08 0 0 0 1.787 2.069ZM8.312 44.315a2.44 2.44 0 1 1-2.44-2.44 2.44 2.44 0 0 1 2.44 2.44M65.532 59.5l-31.115 8.342-.052.013c-2.187.7-5.985-1.47-9.661-3.569-4.382-2.5-8.9-5.079-12.957-4.674V42.773c9.256-3.323 11.171-1.667 13.03-.067a11 11 0 0 0 1.728 1.3l12.251 7.075a2.91 2.91 0 0 1-2.923 5.031l-10.227-5.9a1.133 1.133 0 1 0-1.133 1.962l10.227 5.9a5.1 5.1 0 0 0 2.571.69 5.2 5.2 0 0 0 1.355-.178 5 5 0 0 0 .991-.378 1 1 0 0 0 .157-.02l23.98-5.07a3.4 3.4 0 0 1 4.117 2.327 3.32 3.32 0 0 1-2.343 4.055ZM2.266 63.327h7.211v-23.86h-7.21Zm67.794-8.473a5.587 5.587 0 0 1-3.944 6.834l-31.093 8.331a5.4 5.4 0 0 1-1.586.231c-2.857 0-6.276-1.953-9.862-4-4.161-2.371-8.453-4.825-11.832-4.354v2.564a1.133 1.133 0 0 1-1.133 1.13H1.133A1.133 1.133 0 0 1 0 64.457V38.334A1.133 1.133 0 0 1 1.133 37.2h9.477a1.133 1.133 0 0 1 1.133 1.133v2.031c4.155-1.432 7.223-1.983 9.593-1.732a8.23 8.23 0 0 1 4.913 2.354 9.4 9.4 0 0 0 1.379 1.051l12.251 7.075a5.19 5.19 0 0 1 2.266 6.259L63.28 50.9a5.705 5.705 0 0 1 6.78 3.954"/></svg>