<svg xmlns="http://www.w3.org/2000/svg" width="69.985" height="69.985" viewBox="0 0 69.985 69.985"><g transform="translate(1.129 1.129)"><path fill="#b4dd7f" d="M24.834 60.952v6.773h-9.392A13.18 13.18 0 0 1 2.258 54.544a9.91 9.91 0 0 1 6.773-9.392 13.525 13.525 0 0 1 13.545 13.545v2.255Z"/><path fill="#fcd770" d="m47.409 54.182.068-.271a11.62 11.62 0 0 1 11.22-8.759 9.91 9.91 0 0 1 6.773 9.392v.768a12.417 12.417 0 1 1-24.833 0v-1.13Z"/><path fill="#656d78" d="m55.864 21.819-.09.09a2.2 2.2 0 0 1-1.592.666h-6.773a4.515 4.515 0 1 1 0-9.03h6.141a14.173 14.173 0 0 1 14.177 14.178V38.04a4.857 4.857 0 0 1-4.854 4.854h-4.179V31.606a2.258 2.258 0 0 0 0-4.515 6.33 6.33 0 0 0-2.822-5.26Z"/><path fill="#b27946" d="M22.576 12.417v5.305a4.85 4.85 0 0 1-2.167 4.041l-.045.034a.1.1 0 0 1-.045.023 4.65 4.65 0 0 1-2.551.756H14.81a5.96 5.96 0 0 0-5.779 4.515 2.258 2.258 0 0 0 0 4.515v6.773A13.91 13.91 0 0 1 0 25.353v-1.2a10.63 10.63 0 0 1 10.622-10.607h5a22.1 22.1 0 0 0 6.954-1.129"/><path fill="#e6e9ed" d="M42.894 2.258v9.03a2.264 2.264 0 0 1-2.258 2.258h-4.515l-1.874 3.748a1.4 1.4 0 0 1-2.641-.632v-3.117h-6.772a2.264 2.264 0 0 1-2.258-2.257v-9.03A2.264 2.264 0 0 1 24.834 0h15.8a2.264 2.264 0 0 1 2.26 2.258M27.091 45.149v-9.03a2.264 2.264 0 0 1 2.258-2.258h4.515l1.874-3.748a1.4 1.4 0 0 1 2.641.632v3.115h6.773a2.264 2.264 0 0 1 2.258 2.258v9.031a2.264 2.264 0 0 1-2.258 2.258h-15.8a2.264 2.264 0 0 1-2.261-2.258"/><path fill="#f0d0b4" d="M60.289 27.757a2.2 2.2 0 0 0-1.592-.666 6.33 6.33 0 0 0-2.822-5.26l-.011-.011-.09.09a2.2 2.2 0 0 1-1.592.666H47.41v2.641a4.52 4.52 0 0 1-1.321 3.194l-.474.474a1.6 1.6 0 0 0 1.129 2.72h.666v6.773l.4-.011a3.98 3.98 0 0 0 3.6 2.269 2.7 2.7 0 0 0 .519-.045v6.75l.011.011a11.45 11.45 0 0 1 6.761-2.2V31.607a2.251 2.251 0 0 0 1.592-3.849Zm-12.88 23.038v3.386h-6.773v-3.386a3.387 3.387 0 0 1 6.773 0M35.128 61.948a3.384 3.384 0 0 1-2.395 5.779h-7.9v-6.772h2.258a2.258 2.258 0 0 1 4.515 0h1.127a3.38 3.38 0 0 1 2.395.993M22.113 28.89l-.474-.474a4.52 4.52 0 0 1-1.321-3.194v-3.4a4.65 4.65 0 0 1-2.551.756H14.81a5.96 5.96 0 0 0-5.779 4.512 2.258 2.258 0 0 0 0 4.515v13.547a13.46 13.46 0 0 1 6.773 1.806V40.59l.519.045a3.98 3.98 0 0 0 3.6-2.269l.4.011v-6.77h.666a1.6 1.6 0 0 0 1.124-2.717"/><path fill="#ff826e" d="M47.409 33.864h4.515a4.5 4.5 0 0 1-1.2 3.059 4.54 4.54 0 0 1-2.915 1.441 4 4 0 0 1-.4-1.727zm-27.091 0v2.777a4 4 0 0 1-.4 1.727 4.54 4.54 0 0 1-2.915-1.445 4.5 4.5 0 0 1-1.2-3.059Z"/></g><path d="M33.864 60.955h-.193a3.387 3.387 0 0 0-6.387 0h-2.451v-1.129a14.67 14.67 0 0 0-6.772-12.346v-4.647a5.107 5.107 0 0 0 4.515-5.058v-3.951a2.726 2.726 0 0 0 1.46-4.612l-.467-.467a3.37 3.37 0 0 1-.992-2.4v-2.828a5.97 5.97 0 0 0 2.259-4.672V15.6a3.3 3.3 0 0 0 1.128.208h5.644v1.991a2.524 2.524 0 0 0 4.782 1.129l1.56-3.12h3.818a3.39 3.39 0 0 0 3.386-3.386V3.386A3.39 3.39 0 0 0 41.765 0h-15.8a3.39 3.39 0 0 0-3.386 3.386v9.03c0 .094.02.182.027.273a20.8 20.8 0 0 1-5.854.856h-5A11.744 11.744 0 0 0 0 25.291v1.186a15.12 15.12 0 0 0 9.03 13.79V45.5a11.02 11.02 0 0 0-6.772 10.178 14.325 14.325 0 0 0 14.308 14.307h17.3a4.515 4.515 0 1 0 0-9.03ZM20.279 38.164a3.43 3.43 0 0 1-2.022-2.043h2.061v1.654a3 3 0 0 1-.039.389m1.83-6.558h-1.79v2.258H15.8v1.129a5.67 5.67 0 0 0 3.3 5.115 2.846 2.846 0 0 1-3.67-.308l-1.086-1.09-1.6 1.6 1.093 1.09a5.1 5.1 0 0 0 1.963 1.2v3.684a14.6 14.6 0 0 0-4.515-1.075v-13.6h-1.126a1.129 1.129 0 0 1 0-2.258h.88l.213-.856a4.825 4.825 0 0 1 4.686-3.658H18.9a5.8 5.8 0 0 0 1.417-.191v1.7a5.6 5.6 0 0 0 1.654 3.991l.467.467a.467.467 0 0 1-.33.8Zm2.725-28.22a1.13 1.13 0 0 1 1.129-1.129h15.8a1.13 1.13 0 0 1 1.129 1.129v9.03a1.13 1.13 0 0 1-1.129 1.129h-5.211l-2.183 4.366a.276.276 0 0 1-.506-.117v-4.249h-7.9a1.13 1.13 0 0 1-1.129-1.129zM2.258 26.477v-1.186a9.487 9.487 0 0 1 9.487-9.491h5a23 23 0 0 0 5.827-.746v3.789a3.75 3.75 0 0 1-1.711 3.136 3.53 3.53 0 0 1-1.964.595H15.94A7.08 7.08 0 0 0 9.292 27.2a3.388 3.388 0 0 0-.262 6.468v4.09a12.86 12.86 0 0 1-6.772-11.281m2.258 29.2a8.76 8.76 0 0 1 5.84-8.257 12.426 12.426 0 0 1 12.22 12.407v1.129h-4.782a6.514 6.514 0 0 1-6.506-6.506 3.37 3.37 0 0 0-1.872-3.03l-1.01-.5L7.4 52.934l1.01.5a1.12 1.12 0 0 1 .624 1.01 8.773 8.773 0 0 0 8.764 8.764h7.039v4.515h-8.271A12.064 12.064 0 0 1 4.515 55.676Zm29.348 12.05h-6.773v-4.515h2.258v-1.129a1.129 1.129 0 0 1 2.258 0v1.129h2.258a2.258 2.258 0 1 1 0 4.515Z"/><circle cx="1" cy="1" r="1" transform="translate(15.985 26.903)"/><circle cx="1" cy="1" r="1" transform="translate(51.985 26.903)"/><path d="M54.676 13.545h-6.138a5.644 5.644 0 0 0-1.129 11.174v1.626a3.37 3.37 0 0 1-.992 2.4l-.467.467a2.726 2.726 0 0 0 1.46 4.612v.247a3.4 3.4 0 0 0-1.129-.208h-5.645v-1.991a2.524 2.524 0 0 0-4.781-1.127l-1.56 3.12h-3.818a3.39 3.39 0 0 0-3.386 3.38v9.03a3.39 3.39 0 0 0 3.386 3.386h10.787a4.47 4.47 0 0 0-.628 2.258v4.515a13.546 13.546 0 0 0 27.091 0v-.763a11.02 11.02 0 0 0-6.773-10.178v-.347h3.044a5.986 5.986 0 0 0 5.986-5.986V28.854a15.326 15.326 0 0 0-15.308-15.309m-7.13 17.263.467-.467a5.6 5.6 0 0 0 1.654-3.996v-1.512h5.644a3.34 3.34 0 0 0 1.675-.462 5.2 5.2 0 0 1 1.711 3.848v1.126h1.129a1.129 1.129 0 1 1 0 2.258h-1.129v13.6a12.6 12.6 0 0 0-4.515 1.279V42.6a5.1 5.1 0 0 0 1.966-1.206l1.089-1.089-1.6-1.6-1.089 1.089a2.85 2.85 0 0 1-3.671.308 5.67 5.67 0 0 0 3.3-5.115v-1.124h-4.51v-2.257h-1.79a.468.468 0 0 1-.331-.8Zm1.888 19.756a4.5 4.5 0 0 0-.987-1.7 3.36 3.36 0 0 0 1.219-2.579v-4.267a5.1 5.1 0 0 0 2.258.815v5.076a12.7 12.7 0 0 0-2.49 2.655m.272-12.4a3 3 0 0 1-.04-.389v-1.654h2.061a3.43 3.43 0 0 1-2.021 2.043M29.349 46.28v-9.035a1.13 1.13 0 0 1 1.129-1.129h5.213l2.183-4.366a.276.276 0 0 1 .506.117v4.249h7.9a1.13 1.13 0 0 1 1.129 1.129v9.03a1.13 1.13 0 0 1-1.129 1.129h-15.8a1.13 1.13 0 0 1-1.129-1.129Zm18.061 5.644v2.258h-4.519v-2.258a2.258 2.258 0 0 1 4.515 0Zm18.061 3.752v.763a11.288 11.288 0 0 1-22.576 0h4.515v1.129a5.644 5.644 0 1 0 11.288 0v-4.249a1.12 1.12 0 0 1 .624-1.01l1.01-.5-1.011-2.024-1.01.5a3.37 3.37 0 0 0-1.872 3.03v4.249a3.387 3.387 0 1 1-6.773 0v-2.119l.033-.134a10.42 10.42 0 0 1 9.927-7.9 8.76 8.76 0 0 1 5.844 8.265Zm2.256-16.511a3.73 3.73 0 0 1-3.728 3.728h-3.044V33.67a3.388 3.388 0 0 0-.061-6.408 7.42 7.42 0 0 0-2.433-4.6 3.3 3.3 0 0 0 .236-1.217 3.39 3.39 0 0 0-3.386-3.386h-1.129v2.258h1.129a1.129 1.129 0 1 1 0 2.258h-6.773a3.387 3.387 0 1 1 0-6.773h6.138a13.067 13.067 0 0 1 13.051 13.053ZM27.091 4.515h13.545v2.258H27.091ZM38.379 9.03h2.258v2.258h-2.258Z"/><path d="M31.606 38.379h13.545v2.258H31.606Zm0 4.515h9.03v2.258h-9.03Zm11.288 0h2.258v2.258h-2.258ZM27.091 9.03h9.03v2.258h-9.03Z"/></svg>